<mxfile host="Electron" agent="Mozilla/5.0 (Windows NT 10.0; Win64; x64) AppleWebKit/537.36 (KHTML, like Gecko) draw.io/24.7.8 Chrome/128.0.6613.36 Electron/32.0.1 Safari/537.36" version="24.7.8">
  <diagram name="Page-1" id="JFkhR55UeDS7p-gOcuqu">
    <mxGraphModel dx="2074" dy="1204" grid="1" gridSize="10" guides="1" tooltips="1" connect="1" arrows="1" fold="1" page="1" pageScale="1" pageWidth="850" pageHeight="1100" math="0" shadow="0">
      <root>
        <mxCell id="0" />
        <mxCell id="1" parent="0" />
        <mxCell id="NmFHTMVH-QroRKZWGZ5v-20" value="" style="edgeStyle=orthogonalEdgeStyle;rounded=0;orthogonalLoop=1;jettySize=auto;html=1;endArrow=none;endFill=0;shape=link;fontSize=10;" edge="1" parent="1" source="NmFHTMVH-QroRKZWGZ5v-1" target="NmFHTMVH-QroRKZWGZ5v-19">
          <mxGeometry relative="1" as="geometry" />
        </mxCell>
        <mxCell id="NmFHTMVH-QroRKZWGZ5v-1" value="Student" style="rounded=0;whiteSpace=wrap;html=1;fontSize=10;" vertex="1" parent="1">
          <mxGeometry x="323" y="170" width="120" height="60" as="geometry" />
        </mxCell>
        <mxCell id="NmFHTMVH-QroRKZWGZ5v-14" value="" style="edgeStyle=orthogonalEdgeStyle;rounded=0;orthogonalLoop=1;jettySize=auto;html=1;shape=link;fontSize=10;" edge="1" parent="1" source="NmFHTMVH-QroRKZWGZ5v-2" target="NmFHTMVH-QroRKZWGZ5v-13">
          <mxGeometry relative="1" as="geometry" />
        </mxCell>
        <mxCell id="NmFHTMVH-QroRKZWGZ5v-96" style="rounded=0;orthogonalLoop=1;jettySize=auto;html=1;entryX=0;entryY=0.5;entryDx=0;entryDy=0;endArrow=none;endFill=0;" edge="1" parent="1" source="NmFHTMVH-QroRKZWGZ5v-2" target="NmFHTMVH-QroRKZWGZ5v-94">
          <mxGeometry relative="1" as="geometry" />
        </mxCell>
        <mxCell id="NmFHTMVH-QroRKZWGZ5v-2" value="Undergrad" style="rounded=0;whiteSpace=wrap;html=1;fontSize=10;" vertex="1" parent="1">
          <mxGeometry x="198" y="350" width="120" height="60" as="geometry" />
        </mxCell>
        <mxCell id="NmFHTMVH-QroRKZWGZ5v-98" style="rounded=0;orthogonalLoop=1;jettySize=auto;html=1;endArrow=none;endFill=0;" edge="1" parent="1" source="NmFHTMVH-QroRKZWGZ5v-3" target="NmFHTMVH-QroRKZWGZ5v-97">
          <mxGeometry relative="1" as="geometry" />
        </mxCell>
        <mxCell id="NmFHTMVH-QroRKZWGZ5v-3" value="PostGrad" style="rounded=0;whiteSpace=wrap;html=1;fontSize=10;" vertex="1" parent="1">
          <mxGeometry x="428" y="360" width="120" height="60" as="geometry" />
        </mxCell>
        <mxCell id="NmFHTMVH-QroRKZWGZ5v-4" value="DegreeProgram" style="rounded=0;whiteSpace=wrap;html=1;fontSize=10;" vertex="1" parent="1">
          <mxGeometry x="608" y="170" width="120" height="60" as="geometry" />
        </mxCell>
        <mxCell id="NmFHTMVH-QroRKZWGZ5v-5" value="Course" style="rounded=0;whiteSpace=wrap;html=1;fontSize=10;" vertex="1" parent="1">
          <mxGeometry x="198" y="580" width="120" height="60" as="geometry" />
        </mxCell>
        <mxCell id="NmFHTMVH-QroRKZWGZ5v-8" value="" style="endArrow=none;html=1;rounded=0;entryX=0.5;entryY=1;entryDx=0;entryDy=0;exitX=0.5;exitY=0;exitDx=0;exitDy=0;fontSize=10;" edge="1" parent="1" source="NmFHTMVH-QroRKZWGZ5v-9" target="NmFHTMVH-QroRKZWGZ5v-1">
          <mxGeometry width="50" height="50" relative="1" as="geometry">
            <mxPoint x="383" y="290" as="sourcePoint" />
            <mxPoint x="388" y="240" as="targetPoint" />
          </mxGeometry>
        </mxCell>
        <mxCell id="NmFHTMVH-QroRKZWGZ5v-10" style="rounded=0;orthogonalLoop=1;jettySize=auto;html=1;endArrow=none;endFill=0;fontSize=10;" edge="1" parent="1" source="NmFHTMVH-QroRKZWGZ5v-9" target="NmFHTMVH-QroRKZWGZ5v-2">
          <mxGeometry relative="1" as="geometry" />
        </mxCell>
        <mxCell id="NmFHTMVH-QroRKZWGZ5v-11" style="rounded=0;orthogonalLoop=1;jettySize=auto;html=1;exitX=1;exitY=0.5;exitDx=0;exitDy=0;entryX=0.5;entryY=0;entryDx=0;entryDy=0;endArrow=none;endFill=0;fontSize=10;" edge="1" parent="1" source="NmFHTMVH-QroRKZWGZ5v-9" target="NmFHTMVH-QroRKZWGZ5v-3">
          <mxGeometry relative="1" as="geometry" />
        </mxCell>
        <mxCell id="NmFHTMVH-QroRKZWGZ5v-9" value="U" style="ellipse;whiteSpace=wrap;html=1;aspect=fixed;fontSize=10;" vertex="1" parent="1">
          <mxGeometry x="363" y="290" width="40" height="40" as="geometry" />
        </mxCell>
        <mxCell id="NmFHTMVH-QroRKZWGZ5v-15" style="edgeStyle=orthogonalEdgeStyle;rounded=0;orthogonalLoop=1;jettySize=auto;html=1;entryX=0.5;entryY=0;entryDx=0;entryDy=0;endArrow=none;endFill=0;fontSize=10;" edge="1" parent="1" source="NmFHTMVH-QroRKZWGZ5v-13" target="NmFHTMVH-QroRKZWGZ5v-5">
          <mxGeometry relative="1" as="geometry" />
        </mxCell>
        <mxCell id="NmFHTMVH-QroRKZWGZ5v-13" value="Takes" style="rhombus;whiteSpace=wrap;html=1;rounded=0;fontSize=10;" vertex="1" parent="1">
          <mxGeometry x="218" y="460" width="80" height="80" as="geometry" />
        </mxCell>
        <mxCell id="NmFHTMVH-QroRKZWGZ5v-16" value="M" style="text;html=1;align=center;verticalAlign=middle;resizable=0;points=[];autosize=1;strokeColor=none;fillColor=none;fontSize=10;" vertex="1" parent="1">
          <mxGeometry x="253" y="408" width="30" height="30" as="geometry" />
        </mxCell>
        <mxCell id="NmFHTMVH-QroRKZWGZ5v-17" value="N" style="text;html=1;align=center;verticalAlign=middle;resizable=0;points=[];autosize=1;strokeColor=none;fillColor=none;fontSize=10;" vertex="1" parent="1">
          <mxGeometry x="258" y="550" width="30" height="30" as="geometry" />
        </mxCell>
        <mxCell id="NmFHTMVH-QroRKZWGZ5v-21" style="edgeStyle=orthogonalEdgeStyle;rounded=0;orthogonalLoop=1;jettySize=auto;html=1;entryX=0;entryY=0.5;entryDx=0;entryDy=0;endArrow=none;endFill=0;fontSize=10;" edge="1" parent="1" source="NmFHTMVH-QroRKZWGZ5v-19" target="NmFHTMVH-QroRKZWGZ5v-4">
          <mxGeometry relative="1" as="geometry" />
        </mxCell>
        <mxCell id="NmFHTMVH-QroRKZWGZ5v-19" value="Part of" style="rhombus;whiteSpace=wrap;html=1;rounded=0;fontSize=10;" vertex="1" parent="1">
          <mxGeometry x="488" y="160" width="80" height="80" as="geometry" />
        </mxCell>
        <mxCell id="NmFHTMVH-QroRKZWGZ5v-23" value="N" style="text;html=1;align=center;verticalAlign=middle;resizable=0;points=[];autosize=1;strokeColor=none;fillColor=none;fontSize=10;" vertex="1" parent="1">
          <mxGeometry x="443" y="170" width="30" height="30" as="geometry" />
        </mxCell>
        <mxCell id="NmFHTMVH-QroRKZWGZ5v-24" value="1" style="text;html=1;align=center;verticalAlign=middle;resizable=0;points=[];autosize=1;strokeColor=none;fillColor=none;fontSize=10;" vertex="1" parent="1">
          <mxGeometry x="578" y="170" width="30" height="30" as="geometry" />
        </mxCell>
        <mxCell id="NmFHTMVH-QroRKZWGZ5v-30" value="&lt;u style=&quot;font-size: 10px;&quot;&gt;&lt;font style=&quot;font-size: 10px;&quot;&gt;student_id&lt;/font&gt;&lt;/u&gt;" style="ellipse;whiteSpace=wrap;html=1;fontSize=10;" vertex="1" parent="1">
          <mxGeometry x="138" y="120" width="70" height="40" as="geometry" />
        </mxCell>
        <mxCell id="NmFHTMVH-QroRKZWGZ5v-34" style="rounded=0;orthogonalLoop=1;jettySize=auto;html=1;exitX=1;exitY=0.5;exitDx=0;exitDy=0;entryX=0.007;entryY=0.418;entryDx=0;entryDy=0;entryPerimeter=0;fontSize=10;endArrow=none;endFill=0;" edge="1" parent="1" source="NmFHTMVH-QroRKZWGZ5v-30" target="NmFHTMVH-QroRKZWGZ5v-1">
          <mxGeometry relative="1" as="geometry" />
        </mxCell>
        <mxCell id="NmFHTMVH-QroRKZWGZ5v-49" style="rounded=0;orthogonalLoop=1;jettySize=auto;html=1;entryX=0;entryY=0;entryDx=0;entryDy=0;endArrow=none;endFill=0;" edge="1" parent="1" source="NmFHTMVH-QroRKZWGZ5v-38" target="NmFHTMVH-QroRKZWGZ5v-1">
          <mxGeometry relative="1" as="geometry" />
        </mxCell>
        <mxCell id="NmFHTMVH-QroRKZWGZ5v-38" value="&lt;font style=&quot;font-size: 10px;&quot;&gt;studentnumber&lt;/font&gt;" style="ellipse;whiteSpace=wrap;html=1;fontSize=10;" vertex="1" parent="1">
          <mxGeometry x="168" y="60" width="105" height="40" as="geometry" />
        </mxCell>
        <mxCell id="NmFHTMVH-QroRKZWGZ5v-50" style="rounded=0;orthogonalLoop=1;jettySize=auto;html=1;entryX=0.25;entryY=0;entryDx=0;entryDy=0;endArrow=none;endFill=0;" edge="1" parent="1" source="NmFHTMVH-QroRKZWGZ5v-39" target="NmFHTMVH-QroRKZWGZ5v-1">
          <mxGeometry relative="1" as="geometry" />
        </mxCell>
        <mxCell id="NmFHTMVH-QroRKZWGZ5v-39" value="&lt;font style=&quot;font-size: 10px;&quot;&gt;name&lt;/font&gt;" style="ellipse;whiteSpace=wrap;html=1;fontSize=10;" vertex="1" parent="1">
          <mxGeometry x="288" y="60" width="105" height="40" as="geometry" />
        </mxCell>
        <mxCell id="NmFHTMVH-QroRKZWGZ5v-47" style="rounded=0;orthogonalLoop=1;jettySize=auto;html=1;entryX=0;entryY=0.75;entryDx=0;entryDy=0;endArrow=none;endFill=0;" edge="1" parent="1" source="NmFHTMVH-QroRKZWGZ5v-40" target="NmFHTMVH-QroRKZWGZ5v-1">
          <mxGeometry relative="1" as="geometry" />
        </mxCell>
        <mxCell id="NmFHTMVH-QroRKZWGZ5v-40" value="&lt;font style=&quot;font-size: 10px;&quot;&gt;degreecode&lt;/font&gt;" style="ellipse;whiteSpace=wrap;html=1;fontSize=10;" vertex="1" parent="1">
          <mxGeometry x="120.5" y="170" width="105" height="40" as="geometry" />
        </mxCell>
        <mxCell id="NmFHTMVH-QroRKZWGZ5v-51" style="rounded=0;orthogonalLoop=1;jettySize=auto;html=1;entryX=0.75;entryY=0;entryDx=0;entryDy=0;endArrow=none;endFill=0;" edge="1" parent="1" source="NmFHTMVH-QroRKZWGZ5v-41" target="NmFHTMVH-QroRKZWGZ5v-1">
          <mxGeometry relative="1" as="geometry" />
        </mxCell>
        <mxCell id="NmFHTMVH-QroRKZWGZ5v-41" value="&lt;font style=&quot;font-size: 10px;&quot;&gt;dob&lt;/font&gt;" style="ellipse;whiteSpace=wrap;html=1;fontSize=10;" vertex="1" parent="1">
          <mxGeometry x="403" y="60" width="105" height="40" as="geometry" />
        </mxCell>
        <mxCell id="NmFHTMVH-QroRKZWGZ5v-48" style="rounded=0;orthogonalLoop=1;jettySize=auto;html=1;entryX=0;entryY=1;entryDx=0;entryDy=0;endArrow=none;endFill=0;" edge="1" parent="1" source="NmFHTMVH-QroRKZWGZ5v-42" target="NmFHTMVH-QroRKZWGZ5v-1">
          <mxGeometry relative="1" as="geometry" />
        </mxCell>
        <mxCell id="NmFHTMVH-QroRKZWGZ5v-42" value="&lt;font style=&quot;font-size: 10px;&quot;&gt;yearsofstudy&lt;/font&gt;" style="ellipse;whiteSpace=wrap;html=1;fontSize=10;" vertex="1" parent="1">
          <mxGeometry x="138" y="220" width="105" height="40" as="geometry" />
        </mxCell>
        <mxCell id="NmFHTMVH-QroRKZWGZ5v-107" style="rounded=0;orthogonalLoop=1;jettySize=auto;html=1;entryX=0.5;entryY=1;entryDx=0;entryDy=0;endArrow=none;endFill=0;" edge="1" parent="1" source="NmFHTMVH-QroRKZWGZ5v-43" target="NmFHTMVH-QroRKZWGZ5v-99">
          <mxGeometry relative="1" as="geometry" />
        </mxCell>
        <mxCell id="NmFHTMVH-QroRKZWGZ5v-43" value="&lt;font style=&quot;font-size: 10px;&quot;&gt;deletiontimestamp&lt;/font&gt;" style="ellipse;whiteSpace=wrap;html=1;fontSize=10;" vertex="1" parent="1">
          <mxGeometry x="475.5" y="870" width="105" height="40" as="geometry" />
        </mxCell>
        <mxCell id="NmFHTMVH-QroRKZWGZ5v-53" style="rounded=0;orthogonalLoop=1;jettySize=auto;html=1;endArrow=none;endFill=0;" edge="1" parent="1" source="NmFHTMVH-QroRKZWGZ5v-44" target="NmFHTMVH-QroRKZWGZ5v-3">
          <mxGeometry relative="1" as="geometry" />
        </mxCell>
        <mxCell id="NmFHTMVH-QroRKZWGZ5v-44" value="&lt;font style=&quot;font-size: 10px;&quot;&gt;supervisor&lt;/font&gt;" style="ellipse;whiteSpace=wrap;html=1;fontSize=10;" vertex="1" parent="1">
          <mxGeometry x="598" y="390" width="105" height="40" as="geometry" />
        </mxCell>
        <mxCell id="NmFHTMVH-QroRKZWGZ5v-52" style="rounded=0;orthogonalLoop=1;jettySize=auto;html=1;entryX=1;entryY=0.25;entryDx=0;entryDy=0;endArrow=none;endFill=0;" edge="1" parent="1" source="NmFHTMVH-QroRKZWGZ5v-45" target="NmFHTMVH-QroRKZWGZ5v-3">
          <mxGeometry relative="1" as="geometry" />
        </mxCell>
        <mxCell id="NmFHTMVH-QroRKZWGZ5v-45" value="&lt;font style=&quot;font-size: 10px;&quot;&gt;category&lt;/font&gt;" style="ellipse;whiteSpace=wrap;html=1;fontSize=10;" vertex="1" parent="1">
          <mxGeometry x="598" y="340" width="105" height="40" as="geometry" />
        </mxCell>
        <mxCell id="NmFHTMVH-QroRKZWGZ5v-106" style="rounded=0;orthogonalLoop=1;jettySize=auto;html=1;entryX=0;entryY=0.5;entryDx=0;entryDy=0;endArrow=none;endFill=0;" edge="1" parent="1" source="NmFHTMVH-QroRKZWGZ5v-46" target="NmFHTMVH-QroRKZWGZ5v-99">
          <mxGeometry relative="1" as="geometry" />
        </mxCell>
        <mxCell id="NmFHTMVH-QroRKZWGZ5v-46" value="&lt;font style=&quot;font-size: 10px;&quot;&gt;deletedbyuserid&lt;/font&gt;" style="ellipse;whiteSpace=wrap;html=1;fontSize=10;" vertex="1" parent="1">
          <mxGeometry x="331" y="780" width="105" height="40" as="geometry" />
        </mxCell>
        <mxCell id="NmFHTMVH-QroRKZWGZ5v-54" value="&lt;font style=&quot;font-size: 10px;&quot;&gt;courseregistration&lt;/font&gt;" style="ellipse;whiteSpace=wrap;html=1;fontSize=10;" vertex="1" parent="1">
          <mxGeometry x="48" y="360" width="105" height="40" as="geometry" />
        </mxCell>
        <mxCell id="NmFHTMVH-QroRKZWGZ5v-56" style="rounded=0;orthogonalLoop=1;jettySize=auto;html=1;entryX=0;entryY=0.5;entryDx=0;entryDy=0;endArrow=none;endFill=0;" edge="1" parent="1" source="NmFHTMVH-QroRKZWGZ5v-54" target="NmFHTMVH-QroRKZWGZ5v-2">
          <mxGeometry relative="1" as="geometry" />
        </mxCell>
        <mxCell id="NmFHTMVH-QroRKZWGZ5v-65" style="rounded=0;orthogonalLoop=1;jettySize=auto;html=1;entryX=1;entryY=1;entryDx=0;entryDy=0;endArrow=none;endFill=0;" edge="1" parent="1" source="NmFHTMVH-QroRKZWGZ5v-57" target="NmFHTMVH-QroRKZWGZ5v-4">
          <mxGeometry relative="1" as="geometry" />
        </mxCell>
        <mxCell id="NmFHTMVH-QroRKZWGZ5v-57" value="&lt;u style=&quot;font-size: 10px;&quot;&gt;&lt;font style=&quot;font-size: 10px;&quot;&gt;degreekey&lt;/font&gt;&lt;/u&gt;" style="ellipse;whiteSpace=wrap;html=1;fontSize=10;" vertex="1" parent="1">
          <mxGeometry x="728" y="260" width="70" height="40" as="geometry" />
        </mxCell>
        <mxCell id="NmFHTMVH-QroRKZWGZ5v-62" style="rounded=0;orthogonalLoop=1;jettySize=auto;html=1;entryX=0.25;entryY=0;entryDx=0;entryDy=0;endArrow=none;endFill=0;" edge="1" parent="1" source="NmFHTMVH-QroRKZWGZ5v-58" target="NmFHTMVH-QroRKZWGZ5v-4">
          <mxGeometry relative="1" as="geometry" />
        </mxCell>
        <mxCell id="NmFHTMVH-QroRKZWGZ5v-58" value="&lt;font style=&quot;font-size: 10px;&quot;&gt;degreecode&lt;/font&gt;" style="ellipse;whiteSpace=wrap;html=1;fontSize=10;" vertex="1" parent="1">
          <mxGeometry x="528" y="90" width="105" height="40" as="geometry" />
        </mxCell>
        <mxCell id="NmFHTMVH-QroRKZWGZ5v-63" style="rounded=0;orthogonalLoop=1;jettySize=auto;html=1;entryX=0.5;entryY=0;entryDx=0;entryDy=0;endArrow=none;endFill=0;" edge="1" parent="1" source="NmFHTMVH-QroRKZWGZ5v-59" target="NmFHTMVH-QroRKZWGZ5v-4">
          <mxGeometry relative="1" as="geometry" />
        </mxCell>
        <mxCell id="NmFHTMVH-QroRKZWGZ5v-59" value="&lt;font style=&quot;font-size: 10px;&quot;&gt;degreename&lt;/font&gt;" style="ellipse;whiteSpace=wrap;html=1;fontSize=10;" vertex="1" parent="1">
          <mxGeometry x="608" y="40" width="105" height="40" as="geometry" />
        </mxCell>
        <mxCell id="NmFHTMVH-QroRKZWGZ5v-66" style="rounded=0;orthogonalLoop=1;jettySize=auto;html=1;entryX=0.25;entryY=1;entryDx=0;entryDy=0;endArrow=none;endFill=0;" edge="1" parent="1" source="NmFHTMVH-QroRKZWGZ5v-60" target="NmFHTMVH-QroRKZWGZ5v-4">
          <mxGeometry relative="1" as="geometry" />
        </mxCell>
        <mxCell id="NmFHTMVH-QroRKZWGZ5v-60" value="&lt;font style=&quot;font-size: 10px;&quot;&gt;numberofyears&lt;/font&gt;" style="ellipse;whiteSpace=wrap;html=1;fontSize=10;" vertex="1" parent="1">
          <mxGeometry x="598" y="260" width="105" height="40" as="geometry" />
        </mxCell>
        <mxCell id="NmFHTMVH-QroRKZWGZ5v-64" style="rounded=0;orthogonalLoop=1;jettySize=auto;html=1;entryX=0.75;entryY=0;entryDx=0;entryDy=0;endArrow=none;endFill=0;" edge="1" parent="1" source="NmFHTMVH-QroRKZWGZ5v-61" target="NmFHTMVH-QroRKZWGZ5v-4">
          <mxGeometry relative="1" as="geometry" />
        </mxCell>
        <mxCell id="NmFHTMVH-QroRKZWGZ5v-61" value="&lt;font style=&quot;font-size: 10px;&quot;&gt;faculty&lt;/font&gt;" style="ellipse;whiteSpace=wrap;html=1;fontSize=10;" vertex="1" parent="1">
          <mxGeometry x="693" y="90" width="105" height="40" as="geometry" />
        </mxCell>
        <mxCell id="NmFHTMVH-QroRKZWGZ5v-77" style="rounded=0;orthogonalLoop=1;jettySize=auto;html=1;entryX=0;entryY=0.75;entryDx=0;entryDy=0;endArrow=none;endFill=0;" edge="1" parent="1" source="NmFHTMVH-QroRKZWGZ5v-68" target="NmFHTMVH-QroRKZWGZ5v-5">
          <mxGeometry relative="1" as="geometry" />
        </mxCell>
        <mxCell id="NmFHTMVH-QroRKZWGZ5v-68" value="&lt;u style=&quot;font-size: 10px;&quot;&gt;&lt;font style=&quot;font-size: 10px;&quot;&gt;coursekey&lt;/font&gt;&lt;/u&gt;" style="ellipse;whiteSpace=wrap;html=1;fontSize=10;" vertex="1" parent="1">
          <mxGeometry x="93" y="620" width="70" height="40" as="geometry" />
        </mxCell>
        <mxCell id="NmFHTMVH-QroRKZWGZ5v-76" style="rounded=0;orthogonalLoop=1;jettySize=auto;html=1;entryX=0.25;entryY=1;entryDx=0;entryDy=0;endArrow=none;endFill=0;" edge="1" parent="1" source="NmFHTMVH-QroRKZWGZ5v-69" target="NmFHTMVH-QroRKZWGZ5v-5">
          <mxGeometry relative="1" as="geometry" />
        </mxCell>
        <mxCell id="NmFHTMVH-QroRKZWGZ5v-69" value="&lt;font style=&quot;font-size: 10px;&quot;&gt;coursecode&lt;/font&gt;" style="ellipse;whiteSpace=wrap;html=1;fontSize=10;" vertex="1" parent="1">
          <mxGeometry x="133" y="700" width="105" height="40" as="geometry" />
        </mxCell>
        <mxCell id="NmFHTMVH-QroRKZWGZ5v-75" style="rounded=0;orthogonalLoop=1;jettySize=auto;html=1;entryX=0.75;entryY=1;entryDx=0;entryDy=0;endArrow=none;endFill=0;" edge="1" parent="1" source="NmFHTMVH-QroRKZWGZ5v-70" target="NmFHTMVH-QroRKZWGZ5v-5">
          <mxGeometry relative="1" as="geometry" />
        </mxCell>
        <mxCell id="NmFHTMVH-QroRKZWGZ5v-70" value="&lt;font style=&quot;font-size: 10px;&quot;&gt;coursename&lt;/font&gt;" style="ellipse;whiteSpace=wrap;html=1;fontSize=10;" vertex="1" parent="1">
          <mxGeometry x="253" y="700" width="105" height="40" as="geometry" />
        </mxCell>
        <mxCell id="NmFHTMVH-QroRKZWGZ5v-74" style="rounded=0;orthogonalLoop=1;jettySize=auto;html=1;entryX=1;entryY=1;entryDx=0;entryDy=0;endArrow=none;endFill=0;" edge="1" parent="1" source="NmFHTMVH-QroRKZWGZ5v-71" target="NmFHTMVH-QroRKZWGZ5v-5">
          <mxGeometry relative="1" as="geometry" />
        </mxCell>
        <mxCell id="NmFHTMVH-QroRKZWGZ5v-71" value="&lt;font style=&quot;font-size: 10px;&quot;&gt;department&lt;/font&gt;" style="ellipse;whiteSpace=wrap;html=1;fontSize=10;" vertex="1" parent="1">
          <mxGeometry x="368" y="670" width="105" height="40" as="geometry" />
        </mxCell>
        <mxCell id="NmFHTMVH-QroRKZWGZ5v-73" style="rounded=0;orthogonalLoop=1;jettySize=auto;html=1;entryX=1;entryY=0.5;entryDx=0;entryDy=0;endArrow=none;endFill=0;" edge="1" parent="1" source="NmFHTMVH-QroRKZWGZ5v-72" target="NmFHTMVH-QroRKZWGZ5v-5">
          <mxGeometry relative="1" as="geometry" />
        </mxCell>
        <mxCell id="NmFHTMVH-QroRKZWGZ5v-72" value="&lt;font style=&quot;font-size: 10px;&quot;&gt;credits&lt;/font&gt;" style="ellipse;whiteSpace=wrap;html=1;fontSize=10;" vertex="1" parent="1">
          <mxGeometry x="368" y="600" width="105" height="40" as="geometry" />
        </mxCell>
        <mxCell id="NmFHTMVH-QroRKZWGZ5v-79" value="deletedpostgrad" style="rounded=0;whiteSpace=wrap;html=1;fontSize=10;" vertex="1" parent="1">
          <mxGeometry x="618" y="620" width="120" height="60" as="geometry" />
        </mxCell>
        <mxCell id="NmFHTMVH-QroRKZWGZ5v-100" style="rounded=0;orthogonalLoop=1;jettySize=auto;html=1;entryX=0.5;entryY=0;entryDx=0;entryDy=0;endArrow=none;endFill=0;" edge="1" parent="1" source="NmFHTMVH-QroRKZWGZ5v-94" target="NmFHTMVH-QroRKZWGZ5v-99">
          <mxGeometry relative="1" as="geometry" />
        </mxCell>
        <mxCell id="NmFHTMVH-QroRKZWGZ5v-94" value="Can Become" style="rhombus;whiteSpace=wrap;html=1;fontSize=10;rounded=0;" vertex="1" parent="1">
          <mxGeometry x="403" y="480" width="80" height="80" as="geometry" />
        </mxCell>
        <mxCell id="NmFHTMVH-QroRKZWGZ5v-101" style="rounded=0;orthogonalLoop=1;jettySize=auto;html=1;entryX=0.5;entryY=0;entryDx=0;entryDy=0;endArrow=none;endFill=0;" edge="1" parent="1" source="NmFHTMVH-QroRKZWGZ5v-97" target="NmFHTMVH-QroRKZWGZ5v-79">
          <mxGeometry relative="1" as="geometry" />
        </mxCell>
        <mxCell id="NmFHTMVH-QroRKZWGZ5v-97" value="Can Become" style="rhombus;whiteSpace=wrap;html=1;fontSize=10;rounded=0;" vertex="1" parent="1">
          <mxGeometry x="508" y="480" width="80" height="80" as="geometry" />
        </mxCell>
        <mxCell id="NmFHTMVH-QroRKZWGZ5v-99" value="deletedundergrad" style="rounded=0;whiteSpace=wrap;html=1;fontSize=10;" vertex="1" parent="1">
          <mxGeometry x="468" y="770" width="120" height="60" as="geometry" />
        </mxCell>
        <mxCell id="NmFHTMVH-QroRKZWGZ5v-105" style="rounded=0;orthogonalLoop=1;jettySize=auto;html=1;entryX=0.75;entryY=1;entryDx=0;entryDy=0;endArrow=none;endFill=0;" edge="1" parent="1" source="NmFHTMVH-QroRKZWGZ5v-102" target="NmFHTMVH-QroRKZWGZ5v-79">
          <mxGeometry relative="1" as="geometry" />
        </mxCell>
        <mxCell id="NmFHTMVH-QroRKZWGZ5v-102" value="&lt;font style=&quot;font-size: 10px;&quot;&gt;deletedbyuserid&lt;/font&gt;" style="ellipse;whiteSpace=wrap;html=1;fontSize=10;" vertex="1" parent="1">
          <mxGeometry x="698" y="720" width="105" height="40" as="geometry" />
        </mxCell>
        <mxCell id="NmFHTMVH-QroRKZWGZ5v-104" style="rounded=0;orthogonalLoop=1;jettySize=auto;html=1;entryX=0.25;entryY=1;entryDx=0;entryDy=0;endArrow=none;endFill=0;" edge="1" parent="1" source="NmFHTMVH-QroRKZWGZ5v-103" target="NmFHTMVH-QroRKZWGZ5v-79">
          <mxGeometry relative="1" as="geometry" />
        </mxCell>
        <mxCell id="NmFHTMVH-QroRKZWGZ5v-103" value="&lt;font style=&quot;font-size: 10px;&quot;&gt;deletiontimestamp&lt;/font&gt;" style="ellipse;whiteSpace=wrap;html=1;fontSize=10;" vertex="1" parent="1">
          <mxGeometry x="588" y="720" width="105" height="40" as="geometry" />
        </mxCell>
      </root>
    </mxGraphModel>
  </diagram>
</mxfile>
